<svg width="30" height="30" viewBox="0 0 30 30" fill="none" xmlns="http://www.w3.org/2000/svg">
<path d="M13.4626 22.875C11.6009 22.875 9.78113 22.323 8.23325 21.2888C6.68537 20.2545 5.47895 18.7845 4.76654 17.0646C4.05413 15.3447 3.86773 13.4521 4.23091 11.6263C4.59409 9.80042 5.49055 8.12327 6.80691 6.80691C8.12327 5.49055 9.80042 4.59409 11.6263 4.23091C13.4521 3.86773 15.3447 4.05413 17.0646 4.76654C18.7845 5.47895 20.2545 6.68537 21.2888 8.23325C22.323 9.78113 22.875 11.6009 22.875 13.4626C22.875 14.6986 22.6316 15.9226 22.1586 17.0646C21.6855 18.2065 20.9922 19.2442 20.1182 20.1182C19.2442 20.9922 18.2065 21.6855 17.0646 22.1586C15.9226 22.6316 14.6986 22.875 13.4626 22.875V22.875ZM13.4626 5.93755C11.9792 5.93755 10.5291 6.37742 9.29578 7.20153C8.06241 8.02564 7.10111 9.19698 6.53346 10.5674C5.9658 11.9379 5.81727 13.4459 6.10666 14.9007C6.39605 16.3556 7.11036 17.692 8.15925 18.7409C9.20815 19.7897 10.5445 20.5041 11.9994 20.7934C13.4542 21.0828 14.9622 20.9343 16.3327 20.3666C17.7031 19.799 18.8745 18.8377 19.6986 17.6043C20.5227 16.371 20.9626 14.9209 20.9626 13.4376C20.9626 11.4484 20.1724 9.54077 18.7659 8.13425C17.3593 6.72773 15.4517 5.93755 13.4626 5.93755Z" fill="black"/>
<path d="M25 25.9374C24.8768 25.938 24.7547 25.914 24.641 25.8668C24.5272 25.8196 24.424 25.7501 24.3375 25.6624L19.175 20.5C19.0094 20.3222 18.9192 20.0872 18.9235 19.8443C18.9278 19.6014 19.0262 19.3697 19.1979 19.1979C19.3697 19.0262 19.6014 18.9278 19.8443 18.9235C20.0872 18.9192 20.3222 19.0094 20.5 19.175L25.6625 24.3374C25.838 24.5132 25.9366 24.7515 25.9366 24.9999C25.9366 25.2484 25.838 25.4867 25.6625 25.6624C25.5759 25.7501 25.4727 25.8196 25.3589 25.8668C25.2452 25.914 25.1231 25.938 25 25.9374V25.9374Z" fill="black"/>
</svg>
