<svg width="180" height="57" viewBox="0 0 180 57" fill="none" xmlns="http://www.w3.org/2000/svg">
<g clip-path="url(#clip0_151_2)">
<rect width="180" height="57" fill="white"/>
<path d="M46.6847 17.8V43H41.8967L29.3327 27.7V43H23.5727V17.8H28.3967L40.9247 33.1V17.8H46.6847ZM70.3229 43.432C66.7229 43.432 63.9149 42.436 61.8989 40.444C59.9069 38.452 58.9109 35.608 58.9109 31.912V17.8H64.7429V31.696C64.7429 36.208 66.6149 38.464 70.3589 38.464C72.1829 38.464 73.5749 37.924 74.5349 36.844C75.4949 35.74 75.9749 34.024 75.9749 31.696V17.8H81.7349V31.912C81.7349 35.608 80.7269 38.452 78.7109 40.444C76.7189 42.436 73.9229 43.432 70.3229 43.432ZM116.91 43L116.874 27.88L109.458 40.336H106.83L99.45 28.204V43H93.978V17.8H98.802L108.234 33.46L117.522 17.8H122.31L122.382 43H116.91ZM151.437 37.6H139.737L137.505 43H131.529L142.761 17.8H148.521L159.789 43H153.669L151.437 37.6ZM149.601 33.172L145.605 23.524L141.609 33.172H149.601Z" fill="black"/>
</g>
<defs>
<clipPath id="clip0_151_2">
<rect width="180" height="57" fill="white"/>
</clipPath>
</defs>
</svg>
