<svg width="180" height="28" viewBox="0 0 180 28" fill="none" xmlns="http://www.w3.org/2000/svg">
<rect width="180" height="28" fill="white"/>
<path d="M46.6847 1.8V27H41.8967L29.3327 11.7V27H23.5727V1.8H28.3967L40.9247 17.1V1.8H46.6847ZM70.3229 27.432C66.7229 27.432 63.9149 26.436 61.8989 24.444C59.9069 22.452 58.9109 19.608 58.9109 15.912V1.8H64.7429V15.696C64.7429 20.208 66.6149 22.464 70.3589 22.464C72.1829 22.464 73.5749 21.924 74.5349 20.844C75.4949 19.74 75.9749 18.024 75.9749 15.696V1.8H81.7349V15.912C81.7349 19.608 80.7269 22.452 78.7109 24.444C76.7189 26.436 73.9229 27.432 70.3229 27.432ZM116.91 27L116.874 11.88L109.458 24.336H106.83L99.45 12.204V27H93.978V1.8H98.802L108.234 17.46L117.522 1.8H122.31L122.382 27H116.91ZM151.437 21.6H139.737L137.505 27H131.529L142.761 1.8H148.521L159.789 27H153.669L151.437 21.6ZM149.601 17.172L145.605 7.524L141.609 17.172H149.601Z" fill="black"/>
</svg>
